<mxfile host="Electron" agent="Mozilla/5.0 (X11; Linux x86_64) AppleWebKit/537.36 (KHTML, like Gecko) draw.io/24.5.1 Chrome/124.0.6367.207 Electron/30.0.6 Safari/537.36" modified="2024-10-04T10:29:10.912Z" version="24.5.1" etag="ULlPJGvELrrUpewXtEI2" type="device" pages="3">
  <diagram id="MWU-Lf2ucXBBsPS4CES2" name="数据类型">
    <mxGraphModel dx="1195" dy="740" grid="1" gridSize="10" guides="1" tooltips="1" connect="1" arrows="1" fold="1" page="1" pageScale="1" pageWidth="1600" pageHeight="900" math="0" shadow="0">
      <root>
        <mxCell id="0" />
        <mxCell id="1" parent="0" />
        <mxCell id="w9VTmbDP8Mfck16bQjBT-1" value="基础类型与寄存器布局（32-bit小端机器/64-bit小端机器）" style="swimlane;whiteSpace=wrap;html=1;" vertex="1" parent="1">
          <mxGeometry x="80" y="80" width="720" height="360" as="geometry" />
        </mxCell>
        <mxCell id="w9VTmbDP8Mfck16bQjBT-95" style="edgeStyle=none;curved=1;rounded=0;orthogonalLoop=1;jettySize=auto;html=1;fontSize=12;startSize=8;endSize=8;dashed=1;" edge="1" parent="w9VTmbDP8Mfck16bQjBT-1" source="w9VTmbDP8Mfck16bQjBT-3" target="w9VTmbDP8Mfck16bQjBT-45">
          <mxGeometry relative="1" as="geometry" />
        </mxCell>
        <mxCell id="w9VTmbDP8Mfck16bQjBT-3" value="1" style="text;html=1;align=center;verticalAlign=middle;whiteSpace=wrap;rounded=0;fontSize=16;" vertex="1" parent="w9VTmbDP8Mfck16bQjBT-1">
          <mxGeometry x="110" y="40" width="20" height="30" as="geometry" />
        </mxCell>
        <mxCell id="w9VTmbDP8Mfck16bQjBT-94" style="edgeStyle=none;curved=1;rounded=0;orthogonalLoop=1;jettySize=auto;html=1;fontSize=12;startSize=8;endSize=8;dashed=1;" edge="1" parent="w9VTmbDP8Mfck16bQjBT-1" source="w9VTmbDP8Mfck16bQjBT-2" target="w9VTmbDP8Mfck16bQjBT-51">
          <mxGeometry relative="1" as="geometry" />
        </mxCell>
        <mxCell id="w9VTmbDP8Mfck16bQjBT-96" style="edgeStyle=none;curved=1;rounded=0;orthogonalLoop=1;jettySize=auto;html=1;fontSize=12;startSize=8;endSize=8;dashed=1;" edge="1" parent="w9VTmbDP8Mfck16bQjBT-1" source="w9VTmbDP8Mfck16bQjBT-4" target="w9VTmbDP8Mfck16bQjBT-46">
          <mxGeometry relative="1" as="geometry" />
        </mxCell>
        <mxCell id="w9VTmbDP8Mfck16bQjBT-4" value="2" style="text;html=1;align=center;verticalAlign=middle;whiteSpace=wrap;rounded=0;fontSize=16;" vertex="1" parent="w9VTmbDP8Mfck16bQjBT-1">
          <mxGeometry x="190" y="40" width="20" height="30" as="geometry" />
        </mxCell>
        <mxCell id="w9VTmbDP8Mfck16bQjBT-5" value="3" style="text;html=1;align=center;verticalAlign=middle;whiteSpace=wrap;rounded=0;fontSize=16;" vertex="1" parent="w9VTmbDP8Mfck16bQjBT-1">
          <mxGeometry x="270" y="40" width="20" height="30" as="geometry" />
        </mxCell>
        <mxCell id="w9VTmbDP8Mfck16bQjBT-98" style="edgeStyle=none;curved=1;rounded=0;orthogonalLoop=1;jettySize=auto;html=1;fontSize=12;startSize=8;endSize=8;dashed=1;" edge="1" parent="w9VTmbDP8Mfck16bQjBT-1" source="w9VTmbDP8Mfck16bQjBT-6" target="w9VTmbDP8Mfck16bQjBT-58">
          <mxGeometry relative="1" as="geometry" />
        </mxCell>
        <mxCell id="w9VTmbDP8Mfck16bQjBT-6" value="4" style="text;html=1;align=center;verticalAlign=middle;whiteSpace=wrap;rounded=0;fontSize=16;" vertex="1" parent="w9VTmbDP8Mfck16bQjBT-1">
          <mxGeometry x="350" y="40" width="20" height="30" as="geometry" />
        </mxCell>
        <mxCell id="w9VTmbDP8Mfck16bQjBT-9" value="6" style="text;html=1;align=center;verticalAlign=middle;whiteSpace=wrap;rounded=0;fontSize=16;" vertex="1" parent="w9VTmbDP8Mfck16bQjBT-1">
          <mxGeometry x="510" y="40" width="20" height="30" as="geometry" />
        </mxCell>
        <mxCell id="w9VTmbDP8Mfck16bQjBT-99" style="edgeStyle=none;curved=1;rounded=0;orthogonalLoop=1;jettySize=auto;html=1;fontSize=12;startSize=8;endSize=8;dashed=1;" edge="1" parent="w9VTmbDP8Mfck16bQjBT-1" source="w9VTmbDP8Mfck16bQjBT-11" target="w9VTmbDP8Mfck16bQjBT-50">
          <mxGeometry relative="1" as="geometry" />
        </mxCell>
        <mxCell id="w9VTmbDP8Mfck16bQjBT-11" value="8" style="text;html=1;align=center;verticalAlign=middle;whiteSpace=wrap;rounded=0;fontSize=16;" vertex="1" parent="w9VTmbDP8Mfck16bQjBT-1">
          <mxGeometry x="670" y="40" width="20" height="30" as="geometry" />
        </mxCell>
        <mxCell id="w9VTmbDP8Mfck16bQjBT-12" value="Byte" style="rounded=0;whiteSpace=wrap;html=1;" vertex="1" parent="w9VTmbDP8Mfck16bQjBT-1">
          <mxGeometry x="40" y="80" width="80" height="20" as="geometry" />
        </mxCell>
        <mxCell id="w9VTmbDP8Mfck16bQjBT-13" value="HfWord" style="rounded=0;whiteSpace=wrap;html=1;" vertex="1" parent="w9VTmbDP8Mfck16bQjBT-1">
          <mxGeometry x="40" y="110" width="160" height="20" as="geometry" />
        </mxCell>
        <mxCell id="w9VTmbDP8Mfck16bQjBT-2" value="0" style="text;html=1;align=center;verticalAlign=middle;whiteSpace=wrap;rounded=0;fontSize=16;" vertex="1" parent="w9VTmbDP8Mfck16bQjBT-1">
          <mxGeometry x="30" y="40" width="20" height="30" as="geometry" />
        </mxCell>
        <mxCell id="w9VTmbDP8Mfck16bQjBT-10" value="7" style="text;html=1;align=center;verticalAlign=middle;whiteSpace=wrap;rounded=0;fontSize=16;" vertex="1" parent="w9VTmbDP8Mfck16bQjBT-1">
          <mxGeometry x="590" y="40" width="20" height="30" as="geometry" />
        </mxCell>
        <mxCell id="w9VTmbDP8Mfck16bQjBT-8" value="5" style="text;html=1;align=center;verticalAlign=middle;whiteSpace=wrap;rounded=0;fontSize=16;" vertex="1" parent="w9VTmbDP8Mfck16bQjBT-1">
          <mxGeometry x="430" y="40" width="20" height="30" as="geometry" />
        </mxCell>
        <mxCell id="w9VTmbDP8Mfck16bQjBT-40" value="" style="group" vertex="1" connectable="0" parent="w9VTmbDP8Mfck16bQjBT-1">
          <mxGeometry x="40" y="210" width="640" height="60" as="geometry" />
        </mxCell>
        <mxCell id="w9VTmbDP8Mfck16bQjBT-15" value="BiWord" style="rounded=0;whiteSpace=wrap;html=1;" vertex="1" parent="w9VTmbDP8Mfck16bQjBT-40">
          <mxGeometry width="640" height="20" as="geometry" />
        </mxCell>
        <mxCell id="w9VTmbDP8Mfck16bQjBT-18" value="IeeeF64" style="rounded=0;whiteSpace=wrap;html=1;" vertex="1" parent="w9VTmbDP8Mfck16bQjBT-40">
          <mxGeometry y="20" width="640" height="20" as="geometry" />
        </mxCell>
        <mxCell id="w9VTmbDP8Mfck16bQjBT-20" value="Pointer (64位系统)" style="rounded=0;whiteSpace=wrap;html=1;dashed=1;" vertex="1" parent="w9VTmbDP8Mfck16bQjBT-40">
          <mxGeometry y="40" width="640" height="20" as="geometry" />
        </mxCell>
        <mxCell id="w9VTmbDP8Mfck16bQjBT-41" value="" style="group" vertex="1" connectable="0" parent="w9VTmbDP8Mfck16bQjBT-1">
          <mxGeometry x="40" y="140" width="320" height="60" as="geometry" />
        </mxCell>
        <mxCell id="w9VTmbDP8Mfck16bQjBT-14" value="Word" style="rounded=0;whiteSpace=wrap;html=1;" vertex="1" parent="w9VTmbDP8Mfck16bQjBT-41">
          <mxGeometry width="320" height="20" as="geometry" />
        </mxCell>
        <mxCell id="w9VTmbDP8Mfck16bQjBT-17" value="IeeeF32" style="rounded=0;whiteSpace=wrap;html=1;" vertex="1" parent="w9VTmbDP8Mfck16bQjBT-41">
          <mxGeometry y="20" width="320" height="20" as="geometry" />
        </mxCell>
        <mxCell id="w9VTmbDP8Mfck16bQjBT-19" value="Pointer (32位系统)" style="rounded=0;whiteSpace=wrap;html=1;dashed=1;" vertex="1" parent="w9VTmbDP8Mfck16bQjBT-41">
          <mxGeometry y="40" width="320" height="20" as="geometry" />
        </mxCell>
        <mxCell id="w9VTmbDP8Mfck16bQjBT-42" value="所有32位值的布局都要和Word相同" style="text;html=1;align=center;verticalAlign=middle;whiteSpace=wrap;rounded=0;fontSize=16;" vertex="1" parent="w9VTmbDP8Mfck16bQjBT-1">
          <mxGeometry x="380" y="140" width="280" height="60" as="geometry" />
        </mxCell>
        <mxCell id="w9VTmbDP8Mfck16bQjBT-44" value="所有64位值的布局都要和BiWord相同" style="text;html=1;align=center;verticalAlign=middle;whiteSpace=wrap;rounded=0;fontSize=16;" vertex="1" parent="w9VTmbDP8Mfck16bQjBT-1">
          <mxGeometry x="220" y="280" width="280" height="20" as="geometry" />
        </mxCell>
        <mxCell id="w9VTmbDP8Mfck16bQjBT-45" value="8" style="text;html=1;align=center;verticalAlign=middle;whiteSpace=wrap;rounded=0;fontSize=16;fillColor=#f5f5f5;fontColor=#333333;strokeColor=#666666;" vertex="1" parent="w9VTmbDP8Mfck16bQjBT-1">
          <mxGeometry x="110" y="320" width="20" height="30" as="geometry" />
        </mxCell>
        <mxCell id="w9VTmbDP8Mfck16bQjBT-46" value="16" style="text;html=1;align=center;verticalAlign=middle;whiteSpace=wrap;rounded=0;fontSize=16;fillColor=#f5f5f5;fontColor=#333333;strokeColor=#666666;" vertex="1" parent="w9VTmbDP8Mfck16bQjBT-1">
          <mxGeometry x="190" y="320" width="20" height="30" as="geometry" />
        </mxCell>
        <mxCell id="w9VTmbDP8Mfck16bQjBT-51" value="0" style="text;html=1;align=center;verticalAlign=middle;whiteSpace=wrap;rounded=0;fontSize=16;fillColor=#f5f5f5;fontColor=#333333;strokeColor=#666666;" vertex="1" parent="w9VTmbDP8Mfck16bQjBT-1">
          <mxGeometry x="30" y="320" width="20" height="30" as="geometry" />
        </mxCell>
        <mxCell id="w9VTmbDP8Mfck16bQjBT-54" value="(字节)" style="text;html=1;align=center;verticalAlign=middle;whiteSpace=wrap;rounded=0;fontSize=16;" vertex="1" parent="w9VTmbDP8Mfck16bQjBT-1">
          <mxGeometry x="630" y="70" width="60" height="30" as="geometry" />
        </mxCell>
        <mxCell id="w9VTmbDP8Mfck16bQjBT-55" value="(二进制位)" style="text;html=1;align=center;verticalAlign=middle;whiteSpace=wrap;rounded=0;fontSize=16;" vertex="1" parent="w9VTmbDP8Mfck16bQjBT-1">
          <mxGeometry x="600" y="290" width="80" height="30" as="geometry" />
        </mxCell>
        <mxCell id="w9VTmbDP8Mfck16bQjBT-57" value="24" style="text;html=1;align=center;verticalAlign=middle;whiteSpace=wrap;rounded=0;fontSize=16;fillColor=#f5f5f5;fontColor=#333333;strokeColor=#666666;" vertex="1" parent="w9VTmbDP8Mfck16bQjBT-1">
          <mxGeometry x="270" y="320" width="20" height="30" as="geometry" />
        </mxCell>
        <mxCell id="w9VTmbDP8Mfck16bQjBT-58" value="32" style="text;html=1;align=center;verticalAlign=middle;whiteSpace=wrap;rounded=0;fontSize=16;fillColor=#f5f5f5;fontColor=#333333;strokeColor=#666666;" vertex="1" parent="w9VTmbDP8Mfck16bQjBT-1">
          <mxGeometry x="350" y="320" width="20" height="30" as="geometry" />
        </mxCell>
        <mxCell id="w9VTmbDP8Mfck16bQjBT-53" value="40" style="text;html=1;align=center;verticalAlign=middle;whiteSpace=wrap;rounded=0;fontSize=16;fillColor=#f5f5f5;fontColor=#333333;strokeColor=#666666;" vertex="1" parent="w9VTmbDP8Mfck16bQjBT-1">
          <mxGeometry x="430" y="320" width="20" height="30" as="geometry" />
        </mxCell>
        <mxCell id="w9VTmbDP8Mfck16bQjBT-49" value="48" style="text;html=1;align=center;verticalAlign=middle;whiteSpace=wrap;rounded=0;fontSize=16;fillColor=#f5f5f5;fontColor=#333333;strokeColor=#666666;" vertex="1" parent="w9VTmbDP8Mfck16bQjBT-1">
          <mxGeometry x="510" y="320" width="20" height="30" as="geometry" />
        </mxCell>
        <mxCell id="w9VTmbDP8Mfck16bQjBT-52" value="56" style="text;html=1;align=center;verticalAlign=middle;whiteSpace=wrap;rounded=0;fontSize=16;fillColor=#f5f5f5;fontColor=#333333;strokeColor=#666666;" vertex="1" parent="w9VTmbDP8Mfck16bQjBT-1">
          <mxGeometry x="590" y="320" width="20" height="30" as="geometry" />
        </mxCell>
        <mxCell id="w9VTmbDP8Mfck16bQjBT-50" value="64" style="text;html=1;align=center;verticalAlign=middle;whiteSpace=wrap;rounded=0;fontSize=16;fillColor=#f5f5f5;fontColor=#333333;strokeColor=#666666;" vertex="1" parent="w9VTmbDP8Mfck16bQjBT-1">
          <mxGeometry x="670" y="320" width="20" height="30" as="geometry" />
        </mxCell>
        <mxCell id="w9VTmbDP8Mfck16bQjBT-101" value="Byte accel" style="rounded=0;whiteSpace=wrap;html=1;dashed=1;dashPattern=1 1;" vertex="1" parent="w9VTmbDP8Mfck16bQjBT-1">
          <mxGeometry x="120" y="80" width="80" height="20" as="geometry" />
        </mxCell>
        <mxCell id="w9VTmbDP8Mfck16bQjBT-102" value="Byte accel" style="rounded=0;whiteSpace=wrap;html=1;dashed=1;dashPattern=1 1;" vertex="1" parent="w9VTmbDP8Mfck16bQjBT-1">
          <mxGeometry x="200" y="80" width="80" height="20" as="geometry" />
        </mxCell>
        <mxCell id="w9VTmbDP8Mfck16bQjBT-103" value="Byte accel" style="rounded=0;whiteSpace=wrap;html=1;dashed=1;dashPattern=1 1;" vertex="1" parent="w9VTmbDP8Mfck16bQjBT-1">
          <mxGeometry x="280" y="80" width="80" height="20" as="geometry" />
        </mxCell>
        <mxCell id="w9VTmbDP8Mfck16bQjBT-104" value="HfWord accel" style="rounded=0;whiteSpace=wrap;html=1;dashed=1;dashPattern=1 1;" vertex="1" parent="w9VTmbDP8Mfck16bQjBT-1">
          <mxGeometry x="200" y="110" width="160" height="20" as="geometry" />
        </mxCell>
        <mxCell id="pSYURntgWPNgc1hfNF1O-1" value="⇒&amp;nbsp;SHL 左移/向高位 ⇒" style="rounded=0;whiteSpace=wrap;html=1;dashed=1;dashPattern=1 1;" vertex="1" parent="w9VTmbDP8Mfck16bQjBT-1">
          <mxGeometry x="480" y="80" width="140" height="20" as="geometry" />
        </mxCell>
        <mxCell id="pSYURntgWPNgc1hfNF1O-2" value="⇐&amp;nbsp;SHR 右移/向低位 ⇐" style="rounded=0;whiteSpace=wrap;html=1;dashed=1;dashPattern=1 1;" vertex="1" parent="w9VTmbDP8Mfck16bQjBT-1">
          <mxGeometry x="480" y="100" width="140" height="20" as="geometry" />
        </mxCell>
        <mxCell id="pSYURntgWPNgc1hfNF1O-4" value="移位操作&lt;div&gt;实际走向&lt;/div&gt;" style="rounded=0;whiteSpace=wrap;html=1;dashed=1;dashPattern=1 1;" vertex="1" parent="w9VTmbDP8Mfck16bQjBT-1">
          <mxGeometry x="400" y="80" width="80" height="40" as="geometry" />
        </mxCell>
        <mxCell id="w9VTmbDP8Mfck16bQjBT-60" value="基础类型与寄存器布局（32-bit大端机器/64-bit大端机器）" style="swimlane;whiteSpace=wrap;html=1;" vertex="1" parent="1">
          <mxGeometry x="80" y="480" width="720" height="360" as="geometry" />
        </mxCell>
        <mxCell id="w9VTmbDP8Mfck16bQjBT-61" value="1" style="text;html=1;align=center;verticalAlign=middle;whiteSpace=wrap;rounded=0;fontSize=16;" vertex="1" parent="w9VTmbDP8Mfck16bQjBT-60">
          <mxGeometry x="110" y="40" width="20" height="30" as="geometry" />
        </mxCell>
        <mxCell id="w9VTmbDP8Mfck16bQjBT-62" value="2" style="text;html=1;align=center;verticalAlign=middle;whiteSpace=wrap;rounded=0;fontSize=16;" vertex="1" parent="w9VTmbDP8Mfck16bQjBT-60">
          <mxGeometry x="190" y="40" width="20" height="30" as="geometry" />
        </mxCell>
        <mxCell id="w9VTmbDP8Mfck16bQjBT-63" value="3" style="text;html=1;align=center;verticalAlign=middle;whiteSpace=wrap;rounded=0;fontSize=16;" vertex="1" parent="w9VTmbDP8Mfck16bQjBT-60">
          <mxGeometry x="270" y="40" width="20" height="30" as="geometry" />
        </mxCell>
        <mxCell id="w9VTmbDP8Mfck16bQjBT-64" value="4" style="text;html=1;align=center;verticalAlign=middle;whiteSpace=wrap;rounded=0;fontSize=16;" vertex="1" parent="w9VTmbDP8Mfck16bQjBT-60">
          <mxGeometry x="350" y="40" width="20" height="30" as="geometry" />
        </mxCell>
        <mxCell id="w9VTmbDP8Mfck16bQjBT-65" value="6" style="text;html=1;align=center;verticalAlign=middle;whiteSpace=wrap;rounded=0;fontSize=16;" vertex="1" parent="w9VTmbDP8Mfck16bQjBT-60">
          <mxGeometry x="510" y="40" width="20" height="30" as="geometry" />
        </mxCell>
        <mxCell id="w9VTmbDP8Mfck16bQjBT-66" value="8" style="text;html=1;align=center;verticalAlign=middle;whiteSpace=wrap;rounded=0;fontSize=16;" vertex="1" parent="w9VTmbDP8Mfck16bQjBT-60">
          <mxGeometry x="670" y="40" width="20" height="30" as="geometry" />
        </mxCell>
        <mxCell id="w9VTmbDP8Mfck16bQjBT-67" value="Byte" style="rounded=0;whiteSpace=wrap;html=1;" vertex="1" parent="w9VTmbDP8Mfck16bQjBT-60">
          <mxGeometry x="40" y="80" width="80" height="20" as="geometry" />
        </mxCell>
        <mxCell id="w9VTmbDP8Mfck16bQjBT-68" value="HfWord" style="rounded=0;whiteSpace=wrap;html=1;" vertex="1" parent="w9VTmbDP8Mfck16bQjBT-60">
          <mxGeometry x="40" y="110" width="160" height="20" as="geometry" />
        </mxCell>
        <mxCell id="w9VTmbDP8Mfck16bQjBT-69" value="0" style="text;html=1;align=center;verticalAlign=middle;whiteSpace=wrap;rounded=0;fontSize=16;" vertex="1" parent="w9VTmbDP8Mfck16bQjBT-60">
          <mxGeometry x="30" y="40" width="20" height="30" as="geometry" />
        </mxCell>
        <mxCell id="w9VTmbDP8Mfck16bQjBT-70" value="7" style="text;html=1;align=center;verticalAlign=middle;whiteSpace=wrap;rounded=0;fontSize=16;" vertex="1" parent="w9VTmbDP8Mfck16bQjBT-60">
          <mxGeometry x="590" y="40" width="20" height="30" as="geometry" />
        </mxCell>
        <mxCell id="w9VTmbDP8Mfck16bQjBT-71" value="5" style="text;html=1;align=center;verticalAlign=middle;whiteSpace=wrap;rounded=0;fontSize=16;" vertex="1" parent="w9VTmbDP8Mfck16bQjBT-60">
          <mxGeometry x="430" y="40" width="20" height="30" as="geometry" />
        </mxCell>
        <mxCell id="w9VTmbDP8Mfck16bQjBT-72" value="" style="group" vertex="1" connectable="0" parent="w9VTmbDP8Mfck16bQjBT-60">
          <mxGeometry x="40" y="210" width="640" height="60" as="geometry" />
        </mxCell>
        <mxCell id="w9VTmbDP8Mfck16bQjBT-73" value="BiWord" style="rounded=0;whiteSpace=wrap;html=1;" vertex="1" parent="w9VTmbDP8Mfck16bQjBT-72">
          <mxGeometry width="640" height="20" as="geometry" />
        </mxCell>
        <mxCell id="w9VTmbDP8Mfck16bQjBT-74" value="IeeeF64" style="rounded=0;whiteSpace=wrap;html=1;" vertex="1" parent="w9VTmbDP8Mfck16bQjBT-72">
          <mxGeometry y="20" width="640" height="20" as="geometry" />
        </mxCell>
        <mxCell id="w9VTmbDP8Mfck16bQjBT-75" value="Pointer (64位系统)" style="rounded=0;whiteSpace=wrap;html=1;dashed=1;" vertex="1" parent="w9VTmbDP8Mfck16bQjBT-72">
          <mxGeometry y="40" width="640" height="20" as="geometry" />
        </mxCell>
        <mxCell id="w9VTmbDP8Mfck16bQjBT-76" value="" style="group" vertex="1" connectable="0" parent="w9VTmbDP8Mfck16bQjBT-60">
          <mxGeometry x="40" y="140" width="320" height="60" as="geometry" />
        </mxCell>
        <mxCell id="w9VTmbDP8Mfck16bQjBT-77" value="Word" style="rounded=0;whiteSpace=wrap;html=1;" vertex="1" parent="w9VTmbDP8Mfck16bQjBT-76">
          <mxGeometry width="320" height="20" as="geometry" />
        </mxCell>
        <mxCell id="w9VTmbDP8Mfck16bQjBT-78" value="IeeeF32" style="rounded=0;whiteSpace=wrap;html=1;" vertex="1" parent="w9VTmbDP8Mfck16bQjBT-76">
          <mxGeometry y="20" width="320" height="20" as="geometry" />
        </mxCell>
        <mxCell id="w9VTmbDP8Mfck16bQjBT-79" value="Pointer (32位系统)" style="rounded=0;whiteSpace=wrap;html=1;dashed=1;" vertex="1" parent="w9VTmbDP8Mfck16bQjBT-76">
          <mxGeometry y="40" width="320" height="20" as="geometry" />
        </mxCell>
        <mxCell id="w9VTmbDP8Mfck16bQjBT-80" value="所有32位值的布局都要和Word相同" style="text;html=1;align=center;verticalAlign=middle;whiteSpace=wrap;rounded=0;fontSize=16;" vertex="1" parent="w9VTmbDP8Mfck16bQjBT-60">
          <mxGeometry x="380" y="140" width="280" height="60" as="geometry" />
        </mxCell>
        <mxCell id="w9VTmbDP8Mfck16bQjBT-81" value="所有64位值的布局都要和BiWord相同" style="text;html=1;align=center;verticalAlign=middle;whiteSpace=wrap;rounded=0;fontSize=16;" vertex="1" parent="w9VTmbDP8Mfck16bQjBT-60">
          <mxGeometry x="40" y="280" width="640" height="20" as="geometry" />
        </mxCell>
        <mxCell id="w9VTmbDP8Mfck16bQjBT-85" value="(字节)" style="text;html=1;align=center;verticalAlign=middle;whiteSpace=wrap;rounded=0;fontSize=16;" vertex="1" parent="w9VTmbDP8Mfck16bQjBT-60">
          <mxGeometry x="630" y="70" width="60" height="30" as="geometry" />
        </mxCell>
        <mxCell id="w9VTmbDP8Mfck16bQjBT-86" value="(二进制位)" style="text;html=1;align=center;verticalAlign=middle;whiteSpace=wrap;rounded=0;fontSize=16;" vertex="1" parent="w9VTmbDP8Mfck16bQjBT-60">
          <mxGeometry x="600" y="290" width="80" height="30" as="geometry" />
        </mxCell>
        <mxCell id="w9VTmbDP8Mfck16bQjBT-88" value="32" style="text;html=1;align=center;verticalAlign=middle;whiteSpace=wrap;rounded=0;fontSize=16;fillColor=#f5f5f5;fontColor=#333333;strokeColor=#666666;" vertex="1" parent="w9VTmbDP8Mfck16bQjBT-60">
          <mxGeometry x="350" y="320" width="20" height="30" as="geometry" />
        </mxCell>
        <mxCell id="w9VTmbDP8Mfck16bQjBT-89" value="40" style="text;html=1;align=center;verticalAlign=middle;whiteSpace=wrap;rounded=0;fontSize=16;fillColor=#f5f5f5;fontColor=#333333;strokeColor=#666666;" vertex="1" parent="w9VTmbDP8Mfck16bQjBT-60">
          <mxGeometry x="270" y="320" width="20" height="30" as="geometry" />
        </mxCell>
        <mxCell id="w9VTmbDP8Mfck16bQjBT-90" value="48" style="text;html=1;align=center;verticalAlign=middle;whiteSpace=wrap;rounded=0;fontSize=16;fillColor=#f5f5f5;fontColor=#333333;strokeColor=#666666;" vertex="1" parent="w9VTmbDP8Mfck16bQjBT-60">
          <mxGeometry x="190" y="320" width="20" height="30" as="geometry" />
        </mxCell>
        <mxCell id="w9VTmbDP8Mfck16bQjBT-91" value="56" style="text;html=1;align=center;verticalAlign=middle;whiteSpace=wrap;rounded=0;fontSize=16;fillColor=#f5f5f5;fontColor=#333333;strokeColor=#666666;" vertex="1" parent="w9VTmbDP8Mfck16bQjBT-60">
          <mxGeometry x="110" y="320" width="20" height="30" as="geometry" />
        </mxCell>
        <mxCell id="w9VTmbDP8Mfck16bQjBT-92" value="64" style="text;html=1;align=center;verticalAlign=middle;whiteSpace=wrap;rounded=0;fontSize=16;fillColor=#f5f5f5;fontColor=#333333;strokeColor=#666666;" vertex="1" parent="w9VTmbDP8Mfck16bQjBT-60">
          <mxGeometry x="30" y="320" width="20" height="30" as="geometry" />
        </mxCell>
        <mxCell id="w9VTmbDP8Mfck16bQjBT-84" value="0" style="text;html=1;align=center;verticalAlign=middle;whiteSpace=wrap;rounded=0;fontSize=16;fillColor=#f5f5f5;fontColor=#333333;strokeColor=#666666;" vertex="1" parent="w9VTmbDP8Mfck16bQjBT-60">
          <mxGeometry x="670" y="320" width="20" height="30" as="geometry" />
        </mxCell>
        <mxCell id="w9VTmbDP8Mfck16bQjBT-87" value="24" style="text;html=1;align=center;verticalAlign=middle;whiteSpace=wrap;rounded=0;fontSize=16;fillColor=#f5f5f5;fontColor=#333333;strokeColor=#666666;" vertex="1" parent="w9VTmbDP8Mfck16bQjBT-60">
          <mxGeometry x="430" y="320" width="20" height="30" as="geometry" />
        </mxCell>
        <mxCell id="w9VTmbDP8Mfck16bQjBT-82" value="8" style="text;html=1;align=center;verticalAlign=middle;whiteSpace=wrap;rounded=0;fontSize=16;fillColor=#f5f5f5;fontColor=#333333;strokeColor=#666666;" vertex="1" parent="w9VTmbDP8Mfck16bQjBT-60">
          <mxGeometry x="590" y="320" width="20" height="30" as="geometry" />
        </mxCell>
        <mxCell id="w9VTmbDP8Mfck16bQjBT-83" value="16" style="text;html=1;align=center;verticalAlign=middle;whiteSpace=wrap;rounded=0;fontSize=16;fillColor=#f5f5f5;fontColor=#333333;strokeColor=#666666;" vertex="1" parent="w9VTmbDP8Mfck16bQjBT-60">
          <mxGeometry x="510" y="320" width="20" height="30" as="geometry" />
        </mxCell>
        <mxCell id="pSYURntgWPNgc1hfNF1O-5" value="⇐&amp;nbsp;SHL 左移/向高位 ⇐" style="rounded=0;whiteSpace=wrap;html=1;dashed=1;dashPattern=1 1;" vertex="1" parent="w9VTmbDP8Mfck16bQjBT-60">
          <mxGeometry x="480" y="80" width="140" height="20" as="geometry" />
        </mxCell>
        <mxCell id="pSYURntgWPNgc1hfNF1O-6" value="⇒&amp;nbsp;SHR 右移/向低位 ⇒" style="rounded=0;whiteSpace=wrap;html=1;dashed=1;dashPattern=1 1;" vertex="1" parent="w9VTmbDP8Mfck16bQjBT-60">
          <mxGeometry x="480" y="100" width="140" height="20" as="geometry" />
        </mxCell>
        <mxCell id="pSYURntgWPNgc1hfNF1O-7" value="移位操作&lt;div&gt;实际走向&lt;/div&gt;" style="rounded=0;whiteSpace=wrap;html=1;dashed=1;dashPattern=1 1;" vertex="1" parent="w9VTmbDP8Mfck16bQjBT-60">
          <mxGeometry x="400" y="80" width="80" height="40" as="geometry" />
        </mxCell>
      </root>
    </mxGraphModel>
  </diagram>
  <diagram name="存储模型" id="6Zgu4wTw_UYyd-MpNoKy">
    <mxGraphModel dx="1434" dy="888" grid="1" gridSize="10" guides="1" tooltips="1" connect="1" arrows="1" fold="1" page="1" pageScale="1" pageWidth="1600" pageHeight="900" math="0" shadow="0">
      <root>
        <mxCell id="0" />
        <mxCell id="1" parent="0" />
      </root>
    </mxGraphModel>
  </diagram>
  <diagram id="EK8I-3TDQ89I8pvGeGDm" name="指令槽">
    <mxGraphModel dx="1259" dy="754" grid="1" gridSize="10" guides="1" tooltips="1" connect="1" arrows="1" fold="1" page="1" pageScale="1" pageWidth="827" pageHeight="1169" math="0" shadow="0">
      <root>
        <mxCell id="0" />
        <mxCell id="1" parent="0" />
      </root>
    </mxGraphModel>
  </diagram>
</mxfile>
